<?xml version="1.0" encoding="UTF-8"?><svg id="Layer_2" xmlns="http://www.w3.org/2000/svg" viewBox="0 0 432.38 79.88"><defs><style>.cls-1{fill:#fff;}</style></defs><g id="Layer_1-2"><g><path class="cls-1" d="M83.85,30.61c0,3.06-2.48,5.55-5.54,5.55s-5.55-2.48-5.55-5.55,2.48-5.55,5.55-5.55,5.54,2.48,5.54,5.55Z"/><path class="cls-1" d="M30.11,9.37c0,3.77-3.05,6.82-6.82,6.82s-6.82-3.05-6.82-6.82,3.05-6.82,6.82-6.82,6.82,3.05,6.82,6.82Z"/><path class="cls-1" d="M107.56,16.17c3.78,0,6.85-3.07,6.85-6.85s-3.07-6.85-6.85-6.85-6.85,3.07-6.85,6.85,3.07,6.85,6.85,6.85Z"/><path class="cls-1" d="M128.97,.03c-3.15-.78,3.74,13.05-20.31,17.97-25.32,5.18-18.66,25.36-15.69,28.78,.03,.03-.03-.03,0,0,.48,.52,.97,.56,1.3,.4,.64-.3,.41-2,.41-2-.4-3.18-2.36-12.09,6.33-15.81l-2.07,46.94c-3.9-.29-7.81-.53-11.74-.72l-2.33-27.47c2.25,2.92,5.54,7.11,6.75,8.28,.68,.66,2.12,.46,1.44-1.46,0,0-5.03-14.48-11.83-16.96-1.13-.41-1.9-.54-2.71-.53h0s-1.16-.16-2.94,.61c-6.64,2.86-11.06,16.13-11.06,16.13,0,0,0,0,0,.01-2.21-1.85-7.28-4.28-11.94-6.89,1.63-.88,2.74-2.6,2.74-4.59,0-2.87-2.33-5.2-5.2-5.2s-5.2,2.33-5.2,5.2c0,2.24,1.42,4.15,3.4,4.88-3.79,2.38-7.84,1.3-9.34-.5,3.12-5.16,8.81-25.12-16.76-29.1C-2.39,14.18,4.99-.84,1.98,.12-1.29,1.18-2.11,20.49,12.38,25.09L.72,79.88H13.35s4.31-25.91,4.31-25.91c.02-.1,.04-.19,.06-.25,.11-.39,.45-.67,.87-.67,.51,0,.92,.41,.92,.91,0,0,0,.21,0,.34l-.41,25.56H111.77s-.41-25.69-.41-25.77c0-.51,.41-.92,.92-.92,.41,0,.75,.28,.86,.65,.03,.07,.06,.16,.08,.29l4.28,25.75h12.64l-11.62-54.78C133.12,20.24,132.32,.86,128.97,.03ZM41.88,75.72c-3.34,.18-6.67,.39-9.99,.65l-2.08-47.04c11.52,5.3,6.47,12.52,6.41,17.33-.16,4.17,3.67,7.85,8.64,7.85l-2.99,21.21Zm6.66-.35l1.04-9.42c.01-.12,.03-.2,.06-.26,.12-.36,.45-.62,.86-.62,.45,0,.81,.33,.88,.76l1.34,9.46c-.72,.02-3.46,.05-4.18,.07Zm21.29-.28c-1.33-.01-2.66-.02-4-.02-2.12,0-4.24,.02-6.35,.05l-3.47-20.62c3.83,1.45,7.89,2.3,9.01,2.08,1.3-.03,4.94-5.07,7.23-8.42l-2.42,26.92Zm6.66,.14l1.14-13.75c.01-.12,.03-.21,.06-.28,.11-.38,.45-.66,.86-.66,.45,0,.8,.33,.88,.75,.03,.08,.04,.19,.06,.38l1.32,13.63c-.77-.02-3.55-.05-4.33-.07Z"/></g><g><path class="cls-1" d="M164.83,30.05h-2.15c-6.53,0-10.14-3.65-10.14-10.3V2.03h2.27c2.27,0,3.45,1.3,3.45,4.05v13.3c0,4.22,.97,5.76,5.15,5.76h1.42c2.64,0,4.78-.61,5.8-1.01v1.91c0,2.43-1.22,4.02-5.8,4.02Z"/><path class="cls-1" d="M176.85,6.37c-1.74,0-3.16-1.46-3.16-3.2s1.42-3.16,3.16-3.16,3.2,1.42,3.2,3.16-1.46,3.2-3.2,3.2Zm3.85,23.64c-4.22,0-6.53-2.39-6.53-6.81V8.4h1.54c2.43,0,3.89,1.29,3.89,4.05v10.22c0,2.19,.93,2.88,3.33,2.88h1.01v1.18c0,2.35-.93,3.28-3.24,3.28Z"/><path class="cls-1" d="M202.85,17.44c-1.46,4.02-3.89,9.29-6.33,12.61h-1.06c-1.62,0-2.47-.57-3.57-2.19-2.96-4.5-6.69-14.03-7.18-19.95h2.92c1.86,0,3.04,1.42,3.24,2.6,.77,4.05,1.86,8.28,4.18,12.78,2.07-4.1,3.98-9.9,4.79-15.37h2.31c1.87,0,2.55,.81,2.55,2.6,0,.65-.53,3.29-1.87,6.93Z"/><path class="cls-1" d="M211.34,6.37c-1.74,0-3.16-1.46-3.16-3.2s1.42-3.16,3.16-3.16,3.2,1.42,3.2,3.16-1.46,3.2-3.2,3.2Zm3.85,23.64c-4.22,0-6.53-2.39-6.53-6.81V8.4h1.54c2.43,0,3.89,1.29,3.89,4.05v10.22c0,2.19,.93,2.88,3.33,2.88h1.01v1.18c0,2.35-.93,3.28-3.24,3.28Z"/><path class="cls-1" d="M239.29,29.81c-2.43,0-3.97-1.54-3.97-3.57v-8.68c0-3.69-1.62-5.31-4.42-5.31-2.35,0-3.97,1.79-3.97,4.91v12.65h-1.62c-2.31,0-3.81-1.54-3.81-3.57v-9.45c0-4.62,3.04-9.37,9.85-9.37,5.15,0,9.41,3.45,9.41,9.65v12.73h-1.46Z"/><path class="cls-1" d="M265.25,23.69c.04,.89,.08,2.07,.08,2.8,0,5.47-3.65,10.38-10.71,10.38-4.5,0-7.58-2.19-7.58-4.78v-2.47h.24c1.3,1.38,3.81,2.35,6.93,2.35,3.93,0,5.72-1.87,5.72-5.03,0-.32,0-.77-.04-1.14,0-.32-.04-.89-.04-1.09v-.53c-.45,1.58-2.51,3.24-5.64,3.24-5.31,0-9.08-3.69-9.08-8.84,0-6.16,4.05-11.15,11.11-11.15,5.44,0,8.92,3.97,8.92,9.57v3.73c0,.73,.04,1.99,.08,2.96Zm-14.52-5.8c0,2.84,1.74,4.95,4.34,4.95s4.66-2.03,4.66-5.52-1.7-5.07-4.1-5.07c-2.8,0-4.91,2.35-4.91,5.64Z"/><path class="cls-1" d="M305.91,30.05h-1.34c-.61,0-1.74-.08-2.67-1.74-2.03-3.61-4.26-9.49-5.56-15.41-1.34,6.04-3.61,12.37-6.49,17.15h-1.3c-.61,0-1.87-.08-2.8-1.74-4.1-7.26-7.26-17.32-8.4-26.28h3.2c1.94,0,3.08,1.7,3.33,3.16,.77,4.75,1.99,9.9,4.58,16.1,2.51-5.96,4.54-14.24,5.31-18.21h1.82c1.83,0,3.77,.81,4.34,3.69,.93,4.67,2.35,9.33,4.58,14.52,2.31-5.64,4.3-12.61,5.19-19.22h2.88c1.3,0,2.43,.93,2.43,2.6,0,1.5-1.95,8.15-2.88,11.07-1.38,4.34-3.08,8.84-6.24,14.32Z"/><path class="cls-1" d="M327.18,30.17h-1.1c-5.19,0-8.76-2.92-8.76-6.94s2.84-6.85,10.87-6.85h1.91v-.28c0-3.08-1.46-4.02-4.71-4.02-3.93,0-6.12,1.5-6.93,2.52h-.2v-1.75c0-2.43,2.19-5.35,7.95-5.35,4.87,0,9.25,2.27,9.25,9.81v5.03c0,4.62-3.4,7.83-8.27,7.83Zm2.96-9.9h-1.94c-4.14,0-5.31,.97-5.31,2.76s1.38,2.72,3.77,2.72,3.49-1.14,3.49-3.36v-2.11Z"/><path class="cls-1" d="M358.98,23.69c.04,.89,.08,2.07,.08,2.8,0,5.47-3.65,10.38-10.71,10.38-4.5,0-7.58-2.19-7.58-4.78v-2.47h.24c1.3,1.38,3.81,2.35,6.93,2.35,3.93,0,5.72-1.87,5.72-5.03,0-.32,0-.77-.04-1.14,0-.32-.04-.89-.04-1.09v-.53c-.45,1.58-2.51,3.24-5.64,3.24-5.31,0-9.08-3.69-9.08-8.84,0-6.16,4.05-11.15,11.11-11.15,5.44,0,8.92,3.97,8.92,9.57v3.73c0,.73,.04,1.99,.08,2.96Zm-14.52-5.8c0,2.84,1.74,4.95,4.34,4.95s4.66-2.03,4.66-5.52-1.7-5.07-4.09-5.07c-2.8,0-4.91,2.35-4.91,5.64Z"/><path class="cls-1" d="M372.54,21.21h-3.57c.41,2.76,2.92,4.5,6.13,4.5,2.27,0,4.95-.45,6.69-2.07h.2v1.7c0,2.8-1.91,4.95-7.91,4.95-5.44,0-10.75-4.3-10.75-10.99,0-7.3,4.46-11.88,10.71-11.88,4.54,0,8.76,3.24,8.76,8.48,0,4.01-3.04,5.31-10.26,5.31Zm1.01-9.25c-2.64,0-4.46,2.15-4.58,4.67l-.04,.73h2.43c5.15,0,6.33-.57,6.33-2.11,0-2.19-1.62-3.29-4.14-3.29Z"/><path class="cls-1" d="M164.87,54.17c-.85-.28-1.82-.49-3.16-.49-2.23,0-3.89,.77-3.89,3.69v1.95h6.25v1.5c0,1.95-2.07,3.08-3.89,3.08h-2.35v14.6h-2.19c-1.74,0-3.28-1.34-3.28-3.24v-18.33c0-3.08,2.15-8.03,8.52-8.03,2.35,0,4.18,1.3,4.18,3.45v1.82h-.16Z"/><path class="cls-1" d="M177.09,56.12c6.57,0,10.34,5.27,10.34,11.07,0,6.57-3.77,11.8-10.83,11.8-6.57,0-10.34-5.23-10.34-11.03,0-6.57,3.77-11.84,10.83-11.84Zm-.49,4.86c-3.12,0-4.7,2.6-4.7,6.21,0,4.34,1.58,6.93,5.19,6.93,3.16,0,4.7-2.6,4.7-6.16,0-4.38-1.62-6.98-5.19-6.98Z"/><path class="cls-1" d="M204.11,61.91c-.81-.32-1.75-.65-3.16-.65-2.43,0-3.77,1.34-3.77,4.67v12.57h-1.5c-2.43,0-3.97-1.22-3.97-3.49v-10.06c0-4.38,2.31-8.56,8.07-8.56,3.37,0,4.54,1.91,4.54,3.57v1.95h-.2Z"/><path class="cls-1" d="M230.28,55.34h-8.56v6.89h10.02v1.66c0,1.78-1.42,2.76-2.68,2.76h-7.14v11.84h-2.31c-2.03,0-3.24-1.05-3.24-3.24v-20.24c0-3.45,1.38-4.3,4.62-4.3h12.45v1.74c0,1.3-.97,2.88-3.16,2.88Z"/><path class="cls-1" d="M245.18,78.87h-1.09c-5.19,0-8.76-2.92-8.76-6.94s2.84-6.85,10.87-6.85h1.91v-.28c0-3.08-1.46-4.02-4.7-4.02-3.93,0-6.12,1.5-6.93,2.52h-.2v-1.75c0-2.43,2.19-5.35,7.95-5.35,4.87,0,9.25,2.27,9.25,9.81v5.03c0,4.62-3.41,7.83-8.27,7.83Zm2.96-9.9h-1.95c-4.14,0-5.31,.97-5.31,2.76s1.38,2.72,3.77,2.72,3.49-1.14,3.49-3.36v-2.11Z"/><path class="cls-1" d="M288.21,78.5c-2.96,0-4.14-1.38-4.14-3.98v-8.43c0-3.61-1.62-5.15-4.02-5.15-2.19,0-3.69,1.54-3.69,4.54v13.02h-1.46c-2.39,0-3.98-1.38-3.98-3.98v-8.43c0-3.61-1.66-5.15-4.05-5.15-2.11,0-3.69,1.66-3.69,4.67v12.89h-1.46c-2.23,0-3.93-1.46-3.93-3.98v-8.47c0-5.96,3.12-9.94,9.73-9.94,2.84,0,5.07,1.3,6.65,3.4,1.26-2.03,3.65-3.4,6.29-3.4,5.03,0,9.08,3.04,9.08,9.25v13.14h-1.34Z"/><path class="cls-1" d="M298.21,55.06c-1.74,0-3.16-1.46-3.16-3.2s1.42-3.16,3.16-3.16,3.2,1.42,3.2,3.16-1.46,3.2-3.2,3.2Zm3.85,23.64c-4.22,0-6.53-2.39-6.53-6.81v-14.8h1.54c2.43,0,3.89,1.29,3.89,4.05v10.22c0,2.19,.93,2.88,3.33,2.88h1.01v1.18c0,2.35-.93,3.28-3.24,3.28Z"/><path class="cls-1" d="M315.49,78.7c-4.5,0-6.93-2.39-6.93-6.81v-22.59h1.54c2.72,0,3.89,1.58,3.89,3.65v18.41c0,2.19,1.14,2.88,3.69,2.88h1.46v1.18c0,2.35-1.26,3.28-3.65,3.28Z"/><path class="cls-1" d="M324.95,55.06c-1.74,0-3.16-1.46-3.16-3.2s1.42-3.16,3.16-3.16,3.2,1.42,3.2,3.16-1.46,3.2-3.2,3.2Zm3.85,23.64c-4.22,0-6.53-2.39-6.53-6.81v-14.8h1.54c2.43,0,3.89,1.29,3.89,4.05v10.22c0,2.19,.93,2.88,3.33,2.88h1.01v1.18c0,2.35-.93,3.28-3.25,3.28Z"/><path class="cls-1" d="M343.29,69.9h-3.57c.41,2.76,2.92,4.5,6.13,4.5,2.27,0,4.95-.45,6.69-2.07h.2v1.7c0,2.8-1.91,4.95-7.91,4.95-5.44,0-10.75-4.3-10.75-10.99,0-7.3,4.46-11.88,10.71-11.88,4.54,0,8.76,3.24,8.76,8.48,0,4.01-3.04,5.31-10.26,5.31Zm1.01-9.25c-2.64,0-4.46,2.15-4.58,4.67l-.04,.73h2.43c5.15,0,6.33-.57,6.33-2.11,0-2.19-1.62-3.29-4.14-3.29Z"/><path class="cls-1" d="M364.35,78.99c-4.02,0-7.02-2.07-7.02-4.3v-2.48h.2c1.18,1.1,3.97,2.07,6.57,2.07s3.98-.77,3.98-2.39c0-1.26-.77-1.87-4.54-2.39-4.63-.65-6.86-2.48-6.86-5.8,0-4.09,3.69-7.58,9.29-7.58,4.95,0,6.98,2.55,6.98,4.66v2.07h-.2c-1.14-1.13-3.65-2.03-6.24-2.03-3.33,0-4.38,1.01-4.38,2.43,0,1.1,.65,1.54,4.38,2.15,4.54,.73,6.97,2.72,6.97,6.2,0,4.62-3.24,7.38-9.12,7.38Z"/><path class="cls-1" d="M397.41,78.62h-3c-5.19,0-7.75-2.27-7.75-6.61v-20.16c1.34-.49,5.03-1.26,7.34-1.26h3.36c5.31,0,9.08,2.8,9.08,7.34,0,3.08-1.66,5.07-4.42,5.88,2.8,.77,4.91,3.65,4.91,6.08,0,5.6-4.46,8.72-9.53,8.72Zm-.81-23.4h-2.07c-.69,0-1.62,.16-2.39,.28v6.28h4.26c2.47,0,4.5-.97,4.5-3.36s-2.23-3.2-4.3-3.2Zm0,10.87h-4.42v5.72c0,.97,1.06,1.74,2.43,1.74h2.27c3,0,4.46-1.38,4.46-3.49,0-3-1.5-3.98-4.75-3.98Z"/><path class="cls-1" d="M432.18,58.14c-1.74-2.27-5.23-3-7.62-3-4.95,0-8.64,3.57-8.64,8.96,0,6.53,3.61,9.81,8.84,9.81,2.76,0,5.84-1.09,7.34-2.67h.2v2.07c0,3.81-4.42,5.44-8.27,5.44-7.38,0-13.71-5.52-13.71-13.83s5.72-14.6,14.19-14.6c4.54,0,7.87,1.86,7.87,5.68v2.15h-.2Z"/></g></g></svg>